Coordinates
version=1
nRows=16
nColumns=38
inDegrees=no

Units are S.I. units (second, meters, Newtons, ...)
If the header above contains a line with 'inDegrees', this indicates whether rotational values are in degrees (yes) or radians (no).

endheader
time	pelvis_tilt	pelvis_list	pelvis_rotation	pelvis_tx	pelvis_ty	pelvis_tz	hip_flexion_r	hip_adduction_r	hip_rotation_r	knee_angle_r	ankle_angle_r	subtalar_angle_r	mtp_angle_r	hip_flexion_l	hip_adduction_l	hip_rotation_l	knee_angle_l	ankle_angle_l	subtalar_angle_l	mtp_angle_l	lumbar_extension	lumbar_bending	lumbar_rotation	arm_flex_r	arm_add_r	arm_rot_r	elbow_flex_r	pro_sup_r	wrist_flex_r	wrist_dev_r	arm_flex_l	arm_add_l	arm_rot_l	elbow_flex_l	pro_sup_l	wrist_flex_l	wrist_dev_l
41.33	0.484353	1.48617	1.0387	0.735916	-0.217835	1.03292	0.127995	-0.00171914	0.0201537	0.272446	-0.229773	0	0	-0.0735542	-0.0757643	-0.181441	0	-0.39253	0	0	-0.122986	0.113405	-0.0112908	0.0297466	-0.499982	0.689179	0.768069	0.715203	0	0	0.00169501	-0.245082	0.124954	0.63489	1.22192	0	0
41.34	0.468157	1.48469	1.05657	0.736229	-0.218051	1.03281	0.132518	-0.00179655	0.0194618	0.277405	-0.228085	0	0	-0.0696466	-0.0760069	-0.178177	0	-0.392179	0	0	-0.124334	0.112757	-0.0122028	0.030869	-0.500878	0.685571	0.772951	0.717998	0	0	0.00427627	-0.247779	0.126765	0.643669	1.22321	0	0
41.35	0.448891	1.48236	1.07661	0.736627	-0.21828	1.03257	0.137902	-0.00184295	0.0193686	0.281254	-0.227149	0	0	-0.0644936	-0.0765092	-0.177204	0.00235681	-0.391327	0	0	-0.125021	0.11215	-0.0123287	0.0318451	-0.501975	0.682091	0.77813	0.72103	0	0	0.00664788	-0.250285	0.128832	0.651876	1.22419	0	0
41.36	0.435447	1.48038	1.09074	0.737044	-0.218581	1.03239	0.142609	-0.00151957	0.0199862	0.284845	-0.226435	0	0	-0.0597701	-0.0772238	-0.176113	0.00567202	-0.390223	0	0	-0.126686	0.111746	-0.0123813	0.033349	-0.503148	0.67913	0.783231	0.723617	0	0	0.00942528	-0.252667	0.131278	0.659253	1.22455	0	0
41.37	0.425551	1.47866	1.10141	0.73746	-0.218974	1.03226	0.146804	-0.000984815	0.0207196	0.288187	-0.225569	0	0	-0.055364	-0.0780084	-0.17443	0.0090193	-0.388825	0	0	-0.129389	0.111422	-0.0122698	0.0348913	-0.504427	0.675719	0.788669	0.726174	0	0	0.0125823	-0.25506	0.134313	0.666318	1.22456	0	0
41.38	0.416716	1.47706	1.11099	0.737883	-0.219454	1.03216	0.150757	-0.000291407	0.021523	0.291061	-0.224774	0	0	-0.0511055	-0.0787452	-0.172705	0.0121838	-0.387402	0	0	-0.132679	0.111096	-0.0121013	0.0366026	-0.505893	0.672482	0.794389	0.729056	0	0	0.0160611	-0.257541	0.138207	0.67277	1.22431	0	0
41.39	0.409188	1.47562	1.11928	0.738315	-0.219987	1.03204	0.154885	0.000393142	0.0221073	0.294789	-0.223959	0	0	-0.0469891	-0.0795018	-0.171267	0.0154518	-0.385926	0	0	-0.136571	0.110735	-0.0117155	0.038267	-0.507545	0.669286	0.800438	0.73239	0	0	0.0199	-0.25984	0.142289	0.678548	1.22375	0	0
41.4	0.407568	1.47618	1.12076	0.738777	-0.220383	1.03215	0.156231	0.000675977	0.0224923	0.297454	-0.223534	0	0	-0.0458634	-0.0796854	-0.172697	0.0174832	-0.385319	0	0	-0.143023	0.10995	-0.0105306	0.040141	-0.509354	0.666168	0.806631	0.735678	0	0	0.0237545	-0.261767	0.145938	0.683716	1.22291	0	0
41.41	0.393216	1.4723	1.13529	0.73934	-0.221065	1.03186	0.162953	0.00218167	0.024813	0.30065	-0.223385	0	0	-0.038959	-0.0810579	-0.170744	0.0206582	-0.384488	0	0	-0.145195	0.109794	-0.00984418	0.0423105	-0.510682	0.663886	0.811934	0.738146	0	0	0.0272203	-0.263755	0.149548	0.688248	1.22252	0	0
41.42	0.375614	1.469	1.15186	0.740007	-0.221746	1.03164	0.169704	0.00310349	0.0279937	0.304353	-0.223104	0	0	-0.0327654	-0.0816768	-0.170672	0.0237276	-0.383546	0	0	-0.148121	0.10876	-0.00807348	0.0446908	-0.511855	0.661891	0.816936	0.740661	0	0	0.0308174	-0.265907	0.15392	0.692238	1.22188	0	0
41.43	0.358602	1.46538	1.16858	0.740632	-0.222361	1.03141	0.176385	0.00392052	0.0299053	0.30734	-0.222738	0	0	-0.0260255	-0.0824712	-0.170124	0.0272179	-0.382543	0	0	-0.150763	0.107811	-0.00673892	0.0467619	-0.512901	0.659995	0.82156	0.74323	0	0	0.0344586	-0.267977	0.158796	0.695418	1.22099	0	0
41.44	0.344073	1.46175	1.18323	0.741213	-0.222958	1.03118	0.182749	0.00469931	0.0305983	0.309874	-0.222568	0	0	-0.0192462	-0.0833393	-0.169481	0.0304515	-0.381655	0	0	-0.153453	0.107034	-0.00582154	0.0491473	-0.513825	0.658936	0.825449	0.745653	0	0	0.038231	-0.269667	0.163528	0.697297	1.22015	0	0
41.45	0.32986	1.45799	1.19756	0.741802	-0.223691	1.03094	0.189596	0.0054309	0.0311137	0.312886	-0.222653	0	0	-0.0120584	-0.0842625	-0.168487	0.0343498	-0.380687	0	0	-0.15679	0.10618	-0.00489219	0.0520942	-0.514864	0.658478	0.829452	0.748273	0	0	0.0423946	-0.271442	0.168615	0.698813	1.21909	0	0
41.46	0.315792	1.45419	1.21143	0.742409	-0.224579	1.03068	0.196972	0.00605706	0.0318856	0.316298	-0.222773	0	0	-0.00446865	-0.0850864	-0.167574	0.0386932	-0.379481	0	0	-0.16086	0.105137	-0.00346988	0.0554581	-0.516034	0.658289	0.833592	0.750982	0	0	0.047007	-0.273281	0.174252	0.70023	1.21772	0	0
41.47	0.302639	1.45046	1.2244	0.742997	-0.225632	1.03043	0.204614	0.006618	0.0327868	0.319968	-0.223009	0	0	0.00343361	-0.0858435	-0.166591	0.0433189	-0.378165	0	0	-0.165687	0.104064	-0.0019029	0.0593561	-0.517301	0.658487	0.837659	0.753585	0	0	0.0520593	-0.275061	0.180116	0.70131	1.21607	0	0
41.48	0.288817	1.44636	1.23805	0.74358	-0.22682	1.03013	0.213177	0.00704319	0.0337237	0.324245	-0.223345	0	0	0.0122194	-0.0865485	-0.165618	0.0485505	-0.376551	0	0	-0.170813	0.102909	-0.000336076	0.0636479	-0.518655	0.658845	0.841859	0.756247	0	0	0.0573434	-0.277093	0.186784	0.702173	1.21406	0	0
